<?xml version="1.0" encoding="UTF-8" standalone="no"?>
<!-- Svg Vector Icons : http://www.onlinewebfonts.com/icon -->

<svg
   version="1.1"
   x="0px"
   y="0px"
   viewBox="0 0 980.00739 980.53387"
   enable-background="new 0 0 1000 1000"
   xml:space="preserve"
   id="svg10"
   sodipodi:docname="anchor-orange.svg"
   width="980.00739"
   height="980.53387"
   inkscape:version="1.1 (c68e22c387, 2021-05-23)"
   xmlns:inkscape="http://www.inkscape.org/namespaces/inkscape"
   xmlns:sodipodi="http://sodipodi.sourceforge.net/DTD/sodipodi-0.dtd"
   xmlns="http://www.w3.org/2000/svg"
   xmlns:svg="http://www.w3.org/2000/svg"><defs
   id="defs14" /><sodipodi:namedview
   id="namedview12"
   pagecolor="#505050"
   bordercolor="#eeeeee"
   borderopacity="1"
   inkscape:pageshadow="0"
   inkscape:pageopacity="0"
   inkscape:pagecheckerboard="0"
   showgrid="false"
   inkscape:zoom="0.406"
   inkscape:cx="-100.98522"
   inkscape:cy="469.21182"
   inkscape:window-width="1920"
   inkscape:window-height="1001"
   inkscape:window-x="-9"
   inkscape:window-y="-9"
   inkscape:window-maximized="1"
   inkscape:current-layer="svg10" />
<metadata
   id="metadata2"> Svg Vector Icons : http://www.onlinewebfonts.com/icon </metadata>
<g
   id="g8"
   transform="translate(-10.002755,-9.7361437)"
   style="fill:#337ab7;fill-opacity:1"><g
     transform="matrix(0.1,0,0,-0.1,0,512)"
     id="g6"
     style="fill:#fd7000;fill-opacity:1"><path
       d="m 4739.5,4996 c -467.9,-99.7 -840,-477.5 -937.8,-953.1 -38.4,-184.1 -38.4,-303 0,-489 57.5,-287.7 232.1,-563.8 460.3,-728.8 l 122.7,-90.1 v -387.4 -389.3 h -491 c -548.5,0 -579.2,-5.8 -675.1,-130.4 -71,-92.1 -72.9,-251.2 -5.8,-347.1 90.1,-124.7 143.8,-136.2 688.5,-136.2 h 483.3 V 218.9 c 0,-1334.8 -23,-1670.4 -153.4,-2182.4 -111.2,-441.1 -304.9,-700 -525.5,-700 -201.4,0 -1010.7,450.7 -1469,817 -218.6,174.5 -598.3,554.2 -755.6,755.6 l -128.5,163 78.6,23 c 138.1,40.3 519.7,97.8 811.2,122.7 155.3,13.4 281.9,28.8 281.9,34.5 0,28.8 -218.6,299.2 -364.4,450.7 -314.5,327.9 -709.6,604.1 -1237,866.8 l -326,163 -34.5,-42.2 c -113.2,-138.1 -272.3,-504.4 -349,-792 -86.2,-335.6 -113,-594.5 -113,-1108.5 -1.9,-258.9 3.8,-477.5 9.6,-485.2 7.7,-5.8 101.6,57.5 211,143.8 109.3,86.3 303,226.3 427.7,310.7 l 230.1,153.4 53.7,-205.2 c 86.3,-333.7 163,-540.8 314.5,-843.8 339.4,-690.4 809.3,-1158.3 1543.8,-1541.9 239.7,-124.7 514,-241.6 995.3,-421.9 174.5,-65.2 429.6,-174.5 569.6,-241.6 205.2,-99.7 274.2,-145.7 375.9,-243.6 67.1,-67.1 134.2,-138.1 145.8,-159.2 l 21.1,-38.3 21.1,38.3 c 44.1,74.8 241.7,253.2 358.6,322.2 155.3,92 308.8,157.3 838.1,362.5 922.4,356.7 1321.3,579.2 1737.5,970.4 494.8,466 863,1131.5 1024.1,1858.3 30.7,134.2 32.6,138.1 72.9,117 86.3,-44.1 433.4,-287.7 625.2,-437.3 109.3,-86.3 203.3,-149.6 210.9,-143.8 26.8,28.8 9.6,958.9 -23,1179.4 -42.2,278.1 -124.6,598.3 -209,795.9 -65.2,151.5 -212.9,420 -241.6,439.2 -23,13.4 -521.6,-234 -751.8,-372 -429.6,-258.9 -763.3,-544.6 -1039.4,-887.9 -82.5,-103.6 -149.6,-193.7 -149.6,-203.3 0,-7.7 126.6,-25 283.8,-38.4 289.6,-25 671.2,-82.5 809.3,-122.7 l 76.7,-23 -138.1,-172.6 c -479.4,-598.3 -1212,-1154.5 -1946.5,-1476.7 -218.6,-95.9 -297.3,-105.5 -404.6,-49.9 -247.4,126.6 -402.7,514 -491,1219.7 -55.6,437.2 -69,770.9 -69,1760.5 v 991.5 h 494.8 c 473.7,0 498.6,1.9 579.2,44.1 166.8,82.5 218.6,299.2 107.4,444.9 -90.1,118.9 -126.6,124.7 -680.8,124.7 h -500.5 l 1.9,216.7 c 1.9,117 7.7,293.4 15.3,391.2 l 11.5,174.5 118.9,88.2 c 287.7,211 485.2,607.9 485.2,970.4 0,53.7 -13.4,164.9 -30.7,245.5 C 6058.9,4710.3 5406.9,5136 4739.5,4996 Z M 5263,4338.2 c 172.6,-88.2 297.2,-258.9 326,-446.8 57.5,-383.6 -214.8,-705.7 -598.4,-705.7 -184.1,0 -289.6,44.1 -425.7,180.3 -134.2,136.2 -180.3,241.6 -180.3,423.8 0,182.2 46,287.7 180.3,423.8 149.6,149.6 234,182.2 452.6,174.5 122.8,-5.8 184.2,-17.3 245.5,-49.9 z"
       id="path4"
       style="fill:#fd7000;fill-opacity:1" /></g></g>
</svg>
