<?xml version="1.0" encoding="UTF-8" standalone="no"?>
<!-- Generator: Adobe Illustrator 18.0.0, SVG Export Plug-In . SVG Version: 6.00 Build 0)  -->

<svg
   version="1.1"
   id="Capa_1"
   x="0px"
   y="0px"
   viewBox="0 0 470.07099 496.12418"
   xml:space="preserve"
   sodipodi:docname="checked.svg"
   width="470.07098"
   height="496.12418"
   inkscape:version="1.2.1 (9c6d41e410, 2022-07-14)"
   xmlns:inkscape="http://www.inkscape.org/namespaces/inkscape"
   xmlns:sodipodi="http://sodipodi.sourceforge.net/DTD/sodipodi-0.dtd"
   xmlns="http://www.w3.org/2000/svg"
   xmlns:svg="http://www.w3.org/2000/svg"><defs
   id="defs41" /><sodipodi:namedview
   id="namedview39"
   pagecolor="#505050"
   bordercolor="#eeeeee"
   borderopacity="1"
   inkscape:showpageshadow="0"
   inkscape:pageopacity="0"
   inkscape:pagecheckerboard="0"
   inkscape:deskcolor="#505050"
   showgrid="false"
   inkscape:zoom="0.81028131"
   inkscape:cx="246.82786"
   inkscape:cy="246.21079"
   inkscape:window-width="1920"
   inkscape:window-height="991"
   inkscape:window-x="-9"
   inkscape:window-y="-9"
   inkscape:window-maximized="1"
   inkscape:current-layer="Capa_1" />
<g
   id="g6"
   transform="translate(-13.026,1.6790744e-4)"
   style="fill:#000000">
	<path
   d="m 420.001,219.7 c 3.666,14.313 5.811,29.238 5.811,44.676 0,99.828 -81.199,181.024 -181.022,181.024 -99.821,0 -181.039,-81.195 -181.039,-181.024 0,-99.824 81.218,-181.041 181.039,-181.041 25.442,0 49.633,5.338 71.623,14.848 l 26.912,-43.26 c -29.949,-14.15 -63.27,-22.307 -98.535,-22.307 -127.793,0 -231.764,103.971 -231.764,231.76 0,127.779 103.971,231.748 231.764,231.748 127.774,0 231.743,-103.969 231.743,-231.748 0,-35.516 -8.271,-69.062 -22.599,-99.178 z"
   id="path2"
   style="fill:#000000" />
	<path
   d="M 463.159,6.385 C 443.348,-5.935 417.277,0.106 404.942,19.918 L 236.88,289.985 180.581,209.696 c -13.389,-19.104 -39.775,-23.729 -58.879,-10.338 -19.1,13.408 -23.742,39.756 -10.336,58.877 l 93.002,132.633 c 7.93,11.291 20.855,17.996 34.609,17.996 0.379,0 0.777,0 1.157,-0.018 14.181,-0.396 27.229,-7.871 34.72,-19.914 L 476.702,64.6 C 489.05,44.766 482.972,18.713 463.159,6.385 Z"
   id="path4"
   style="fill:#000000" />
</g>
<g
   id="g8"
   transform="translate(-13.026,1.6790744e-4)">
</g>
<g
   id="g10"
   transform="translate(-13.026,1.6790744e-4)">
</g>
<g
   id="g12"
   transform="translate(-13.026,1.6790744e-4)">
</g>
<g
   id="g14"
   transform="translate(-13.026,1.6790744e-4)">
</g>
<g
   id="g16"
   transform="translate(-13.026,1.6790744e-4)">
</g>
<g
   id="g18"
   transform="translate(-13.026,1.6790744e-4)">
</g>
<g
   id="g20"
   transform="translate(-13.026,1.6790744e-4)">
</g>
<g
   id="g22"
   transform="translate(-13.026,1.6790744e-4)">
</g>
<g
   id="g24"
   transform="translate(-13.026,1.6790744e-4)">
</g>
<g
   id="g26"
   transform="translate(-13.026,1.6790744e-4)">
</g>
<g
   id="g28"
   transform="translate(-13.026,1.6790744e-4)">
</g>
<g
   id="g30"
   transform="translate(-13.026,1.6790744e-4)">
</g>
<g
   id="g32"
   transform="translate(-13.026,1.6790744e-4)">
</g>
<g
   id="g34"
   transform="translate(-13.026,1.6790744e-4)">
</g>
<g
   id="g36"
   transform="translate(-13.026,1.6790744e-4)">
</g>
</svg>
