<?xml version="1.0" encoding="UTF-8" standalone="no"?>
<svg
   id="Layer_1"
   data-name="Layer 1"
   viewBox="0 0 122.91831 122.91831"
   version="1.1"
   sodipodi:docname="cross.svg"
   width="122.9183"
   height="122.9183"
   inkscape:version="1.1 (c68e22c387, 2021-05-23)"
   xmlns:inkscape="http://www.inkscape.org/namespaces/inkscape"
   xmlns:sodipodi="http://sodipodi.sourceforge.net/DTD/sodipodi-0.dtd"
   xmlns="http://www.w3.org/2000/svg"
   xmlns:svg="http://www.w3.org/2000/svg">
  <sodipodi:namedview
     id="namedview11"
     pagecolor="#ffffff"
     bordercolor="#999999"
     borderopacity="1"
     inkscape:pageshadow="0"
     inkscape:pageopacity="0"
     inkscape:pagecheckerboard="0"
     showgrid="false"
     inkscape:zoom="3.3040365"
     inkscape:cx="25.423448"
     inkscape:cy="68.249851"
     inkscape:window-width="1920"
     inkscape:window-height="1001"
     inkscape:window-x="-9"
     inkscape:window-y="-9"
     inkscape:window-maximized="1"
     inkscape:current-layer="Layer_1" />
  <defs
     id="defs4">
    <style
       id="style2">.cls-1{fill:#ff4141;fill-rule:evenodd;}</style>
  </defs>
  <title
     id="title6">cross</title>
  <path
     class="cls-1"
     d="m 5.9920929,5.9962152 v 0 a 20.53,20.53 0 0 1 29.0000001,0 l 26.5,26.4899998 26.43,-26.4899998 a 20.54,20.54 0 0 1 28.999997,0 v 0 a 20.53,20.53 0 0 1 0,28.9999998 l -26.519997,26.44 26.489997,26.49 a 20.54,20.54 0 0 1 0,29.000005 v 0 a 20.54,20.54 0 0 1 -28.999997,0 l -26.46,-26.520005 -26.44,26.490005 a 20.54,20.54 0 0 1 -29.0000001,0 v 0 a 20.54,20.54 0 0 1 0,-29.000005 l 26.4700001,-26.46 -26.4700001,-26.5 a 20.53,20.53 0 0 1 0,-28.9399998 z"
     id="path8"
     style="fill:#ffffff;stroke:none" />
</svg>
