<?xml version="1.0" encoding="UTF-8" standalone="no"?>
<svg
   viewBox="0 0 373.19211 373.19211"
   version="1.1"
   id="svg4"
   sodipodi:docname="palette.svg"
   width="373.19211"
   height="373.19211"
   inkscape:version="1.1 (c68e22c387, 2021-05-23)"
   xmlns:inkscape="http://www.inkscape.org/namespaces/inkscape"
   xmlns:sodipodi="http://sodipodi.sourceforge.net/DTD/sodipodi-0.dtd"
   xmlns="http://www.w3.org/2000/svg"
   xmlns:svg="http://www.w3.org/2000/svg">
  <defs
     id="defs8" />
  <sodipodi:namedview
     id="namedview6"
     pagecolor="#ffffff"
     bordercolor="#999999"
     borderopacity="1"
     inkscape:pageshadow="0"
     inkscape:pageopacity="0"
     inkscape:pagecheckerboard="0"
     showgrid="false"
     inkscape:zoom="1.5859375"
     inkscape:cx="262.30542"
     inkscape:cy="147.86207"
     inkscape:window-width="1920"
     inkscape:window-height="1001"
     inkscape:window-x="-9"
     inkscape:window-y="-9"
     inkscape:window-maximized="1"
     inkscape:current-layer="svg4" />
  <path
     id="path1113"
     style="fill:#ffffff;stroke:#ffffff;stroke-width:10;stroke-linecap:round;stroke-linejoin:round;stroke-miterlimit:4;stroke-dasharray:none;stroke-opacity:1"
     d="m 186.59571,5 c 100.29273,-1e-6 181.5957,81.302976 181.5957,181.5957 0,100.29273 -81.30298,181.59571 -181.5957,181.59571 -42.50677,0 -51.00426,-7.60485 -47.2793,-19.32813 5.69387,-17.91992 46.11746,-49.00168 24.94531,-70.17383 C 143.08957,257.5173 116.6966,264.77153 84.18164,262.00586 43.96302,258.58492 5,247.82058 5,186.5957 5,86.302973 86.30298,4.999994 186.59571,5 Z m 20.0332,33.244141 A -24.134192,24.134192 0 0 0 182.49414,62.378906 -24.134192,24.134192 0 0 0 206.62891,86.513672 -24.134192,24.134192 0 0 0 230.76368,62.378906 -24.134192,24.134192 0 0 0 206.62891,38.244141 Z M 116.88282,64.210938 A -29.695728,29.695728 0 0 0 87.18555,93.90625 -29.695728,29.695728 0 0 0 116.88282,123.60156 -29.695728,29.695728 0 0 0 146.57813,93.90625 -29.695728,29.695728 0 0 0 116.88282,64.210938 Z m 164.36132,14.248046 a -18.600985,18.600985 0 0 0 -18.60156,18.59961 -18.600985,18.600985 0 0 0 18.60156,18.601566 -18.600985,18.600985 0 0 0 18.59961,-18.601566 -18.600985,18.600985 0 0 0 -18.59961,-18.59961 z M 79.47071,148.31445 a -37.651932,37.651932 0 0 0 -37.65235,37.65039 -37.651932,37.651932 0 0 0 37.65235,37.65235 -37.651932,37.651932 0 0 0 37.65039,-37.65235 -37.651932,37.651932 0 0 0 -37.65039,-37.65039 z m 238.34375,2.02539 a -13.556649,13.556649 0 0 0 -13.55664,13.55664 -13.556649,13.556649 0 0 0 13.55664,13.55664 -13.556649,13.556649 0 0 0 13.55664,-13.55664 -13.556649,13.556649 0 0 0 -13.55664,-13.55664 z" />
</svg>
