<?xml version="1.0" encoding="UTF-8" standalone="no"?>
<!-- Svg Vector Icons : http://www.onlinewebfonts.com/icon -->

<svg
   version="1.1"
   x="0px"
   y="0px"
   viewBox="0 0 980.01251 985.42499"
   enable-background="new 0 0 1000 1000"
   xml:space="preserve"
   id="svg12"
   sodipodi:docname="pen - Copie.svg"
   width="980.01251"
   height="985.42499"
   inkscape:version="1.1 (c68e22c387, 2021-05-23)"
   xmlns:inkscape="http://www.inkscape.org/namespaces/inkscape"
   xmlns:sodipodi="http://sodipodi.sourceforge.net/DTD/sodipodi-0.dtd"
   xmlns="http://www.w3.org/2000/svg"
   xmlns:svg="http://www.w3.org/2000/svg"><defs
   id="defs16" /><sodipodi:namedview
   id="namedview14"
   pagecolor="#505050"
   bordercolor="#eeeeee"
   borderopacity="1"
   inkscape:pageshadow="0"
   inkscape:pageopacity="0"
   inkscape:pagecheckerboard="0"
   showgrid="false"
   inkscape:zoom="0.1015"
   inkscape:cx="443.34975"
   inkscape:cy="1049.2611"
   inkscape:window-width="1920"
   inkscape:window-height="1001"
   inkscape:window-x="-9"
   inkscape:window-y="-9"
   inkscape:window-maximized="1"
   inkscape:current-layer="g10" />
<metadata
   id="metadata2"> Svg Vector Icons : http://www.onlinewebfonts.com/icon </metadata>
<g
   id="g10"
   transform="translate(-10,-7.275)"><path
     d="M 694.4,201.1 215.1,680.4 c -27.8,27.8 -27.8,72.8 0,100.5 27.7,27.8 72.8,27.8 100.5,0 L 794.9,301.6 Z m -27.5,-27.4 -53.3,-53.3 c -1.5,1.1 -2.9,2.1 -4.3,3.5 L 130,603.1 c -14.9,14.9 -14.9,39.2 0,54.1 14.9,14.9 39.2,14.9 54.1,0 L 663.4,177.9 c 1.4,-1.3 2.4,-2.8 3.5,-4.2 z M 821.3,328 c -1.5,1.1 -2.9,2.1 -4.3,3.5 L 337.8,810.8 c -14.9,14.9 -14.9,39.2 0,54.1 14.9,14.9 39.2,14.9 54.1,0 L 871.2,385.6 c 1.3,-1.3 2.4,-2.8 3.5,-4.2 z"
     id="path4"
     style="fill:#337ab7;fill-opacity:1" /><path
     d="M 283.3,850.6 C 130.2,850.6 152.1,719.4 152.1,719.4 86.5,719.4 75.6,675.7 75.6,675.7 L 10,992.7 338,916.2 C 276.8,903 283.3,850.6 283.3,850.6 Z"
     id="path6"
     style="fill:#337ab7;fill-opacity:1" /><path
     d="M 959.8,154.1 843.2,37.5 C 803,-2.8 737.7,-2.8 697.5,37.5 L 646.9,88 909.2,350.3 959.7,299.8 c 40.4,-40.2 40.4,-105.5 0.1,-145.7 z"
     id="path8"
     style="fill:#337ab7;fill-opacity:1" /></g>
</svg>
