<?xml version="1.0" encoding="UTF-8" standalone="no"?>
<!-- Generator: Adobe Illustrator 16.0.0, SVG Export Plug-In . SVG Version: 6.00 Build 0)  -->

<svg
   version="1.1"
   id="Capa_1"
   x="0px"
   y="0px"
   width="687.88129"
   height="973.099"
   viewBox="0 0 687.8813 973.09902"
   xml:space="preserve"
   sodipodi:docname="question-mark.svg"
   inkscape:version="1.1 (c68e22c387, 2021-05-23)"
   xmlns:inkscape="http://www.inkscape.org/namespaces/inkscape"
   xmlns:sodipodi="http://sodipodi.sourceforge.net/DTD/sodipodi-0.dtd"
   xmlns="http://www.w3.org/2000/svg"
   xmlns:svg="http://www.w3.org/2000/svg"><defs
   id="defs41" /><sodipodi:namedview
   id="namedview39"
   pagecolor="#ffffff"
   bordercolor="#999999"
   borderopacity="1"
   inkscape:pageshadow="0"
   inkscape:pageopacity="0"
   inkscape:pagecheckerboard="0"
   showgrid="false"
   inkscape:zoom="0.83444663"
   inkscape:cx="343.94051"
   inkscape:cy="485.95079"
   inkscape:window-width="1920"
   inkscape:window-height="1001"
   inkscape:window-x="-9"
   inkscape:window-y="-9"
   inkscape:window-maximized="1"
   inkscape:current-layer="Capa_1" />
<g
   id="g6"
   transform="translate(-142.60973)"
   style="fill:#ffffff">
	<path
   d="m 502.29,788.199 h -47 c -33.1,0 -60,26.9 -60,60 v 64.9 c 0,33.1 26.9,60 60,60 h 47 c 33.101,0 60,-26.9 60,-60 v -64.9 c 0,-33.199 -26.899,-60 -60,-60 z"
   id="path2"
   style="fill:#ffffff" />
	<path
   d="m 170.89,285.8 86.7,10.8 c 27.5,3.4 53.6,-12.4 63.5,-38.3 12.5,-32.7 29.9,-58.5 52.2,-77.3 31.601,-26.6 70.9,-40 117.9,-40 48.7,0 87.5,12.8 116.3,38.3 28.8,25.6 43.1,56.2 43.1,92.1 0,25.8 -8.1,49.4 -24.3,70.8 -10.5,13.6 -42.8,42.2 -96.7,85.9 -54,43.7 -89.899,83.099 -107.899,118.099 -18.4,35.801 -24.8,75.5 -26.4,115.301 -1.399,34.1 25.8,62.5 60,62.5 h 49 c 31.2,0 57,-23.9 59.8,-54.9 2,-22.299 5.7,-39.199 11.301,-50.699 9.399,-19.701 33.699,-45.701 72.699,-78.1 C 723.59,477.8 772.79,428.4 795.891,392 c 23,-36.3 34.6,-74.8 34.6,-115.5 0,-73.5 -31.3,-138 -94,-193.4 -62.6,-55.4 -147,-83.1 -253,-83.1 -100.8,0 -182.1,27.3 -244.1,82 -52.8,46.6 -84.9,101.8 -96.2,165.5 -3.501,18.6 9.199,36 27.699,38.3 z"
   id="path4"
   style="fill:#ffffff" />
</g>
<g
   id="g8"
   transform="translate(-142.60973)">
</g>
<g
   id="g10"
   transform="translate(-142.60973)">
</g>
<g
   id="g12"
   transform="translate(-142.60973)">
</g>
<g
   id="g14"
   transform="translate(-142.60973)">
</g>
<g
   id="g16"
   transform="translate(-142.60973)">
</g>
<g
   id="g18"
   transform="translate(-142.60973)">
</g>
<g
   id="g20"
   transform="translate(-142.60973)">
</g>
<g
   id="g22"
   transform="translate(-142.60973)">
</g>
<g
   id="g24"
   transform="translate(-142.60973)">
</g>
<g
   id="g26"
   transform="translate(-142.60973)">
</g>
<g
   id="g28"
   transform="translate(-142.60973)">
</g>
<g
   id="g30"
   transform="translate(-142.60973)">
</g>
<g
   id="g32"
   transform="translate(-142.60973)">
</g>
<g
   id="g34"
   transform="translate(-142.60973)">
</g>
<g
   id="g36"
   transform="translate(-142.60973)">
</g>
</svg>
