<?xml version="1.0" encoding="UTF-8" standalone="no"?>
<!-- Svg Vector Icons : http://www.onlinewebfonts.com/icon -->

<svg
   version="1.1"
   x="0px"
   y="0px"
   viewBox="0 0 732.00397 959.91211"
   enable-background="new 0 0 1000 1000"
   xml:space="preserve"
   id="svg8"
   sodipodi:docname="feuy.svg"
   width="732.00397"
   height="959.91211"
   inkscape:version="1.1 (c68e22c387, 2021-05-23)"
   xmlns:inkscape="http://www.inkscape.org/namespaces/inkscape"
   xmlns:sodipodi="http://sodipodi.sourceforge.net/DTD/sodipodi-0.dtd"
   xmlns="http://www.w3.org/2000/svg"
   xmlns:svg="http://www.w3.org/2000/svg"><defs
   id="defs12" /><sodipodi:namedview
   id="namedview10"
   pagecolor="#505050"
   bordercolor="#eeeeee"
   borderopacity="1"
   inkscape:pageshadow="0"
   inkscape:pageopacity="0"
   inkscape:pagecheckerboard="0"
   showgrid="false"
   inkscape:snap-bbox="true"
   inkscape:bbox-paths="true"
   inkscape:bbox-nodes="true"
   inkscape:snap-bbox-edge-midpoints="true"
   inkscape:snap-bbox-midpoints="true"
   inkscape:object-paths="true"
   inkscape:snap-intersection-paths="true"
   inkscape:snap-smooth-nodes="true"
   inkscape:snap-midpoints="true"
   inkscape:snap-object-midpoints="true"
   inkscape:snap-center="true"
   inkscape:snap-text-baseline="true"
   inkscape:zoom="0.14354268"
   inkscape:cx="-424.96073"
   inkscape:cy="658.3408"
   inkscape:window-width="1920"
   inkscape:window-height="1001"
   inkscape:window-x="-9"
   inkscape:window-y="-9"
   inkscape:window-maximized="1"
   inkscape:current-layer="svg8" />
<metadata
   id="metadata2"> Svg Vector Icons : http://www.onlinewebfonts.com/icon </metadata>

<path
   id="path4569"
   style="color:#000000;fill:#ffffff;stroke:none;stroke-width:5;stroke-linecap:round;stroke-linejoin:round;stroke-miterlimit:4;stroke-dasharray:none;stroke-opacity:1"
   d="M 9.4493786,5.2911482e-8 A 9.449745,9.449745 0 0 0 7.8574728e-5,9.488281 L 3.8457786,950.50195 a 9.449745,9.449745 0 0 0 9.4493004,9.41016 H 722.55478 a 9.449745,9.449745 0 0 0 9.4492,-9.44922 V 305.53711 a 9.449745,9.449745 0 0 0 0,-0.002 h -296.0859 c -5.2185,-3e-4 -9.4489,-4.23068 -9.4492,-9.44921 V 5.2911482e-8 Z M 119.69538,305.48242 h 204.4336 a 9.4488001,9.4488001 0 0 1 9.4493,9.44922 9.4488001,9.4488001 0 0 1 -9.4493,9.44922 h -204.4336 a 9.4488001,9.4488001 0 0 1 -9.4472,-9.44922 9.4488001,9.4488001 0 0 1 9.4472,-9.44922 z m 0,82.51367 h 492.6114 a 9.4488001,9.4488001 0 0 1 9.4492,9.44727 9.4488001,9.4488001 0 0 1 -9.4492,9.44922 h -492.6114 a 9.4488001,9.4488001 0 0 1 -9.4472,-9.44922 9.4488001,9.4488001 0 0 1 9.4472,-9.44727 z m 0,82.51172 h 492.6114 a 9.4488001,9.4488001 0 0 1 9.4492,9.44922 9.4488001,9.4488001 0 0 1 -9.4492,9.44727 h -492.6114 a 9.4488001,9.4488001 0 0 1 -9.4472,-9.44727 9.4488001,9.4488001 0 0 1 9.4472,-9.44922 z m 0,82.51172 h 492.6114 a 9.4488001,9.4488001 0 0 1 9.4492,9.44922 9.4488001,9.4488001 0 0 1 -9.4492,9.44922 h -492.6114 a 9.4488001,9.4488001 0 0 1 -9.4472,-9.44922 9.4488001,9.4488001 0 0 1 9.4472,-9.44922 z m 0,82.51367 h 492.6114 a 9.4488001,9.4488001 0 0 1 9.4492,9.44727 9.4488001,9.4488001 0 0 1 -9.4492,9.44922 h -492.6114 a 9.4488001,9.4488001 0 0 1 -9.4472,-9.44922 9.4488001,9.4488001 0 0 1 9.4472,-9.44727 z" /><path
   id="path4631"
   style="color:#000000;fill:#fefefe;stroke-width:18.8976;stroke-linecap:round;stroke-linejoin:round;-inkscape-stroke:none"
   d="m 449.27748,5.2911482e-8 c 0,0 0,182.184889947088521 0,273.277339947088478 3e-4,5.21853 4.2307,9.44891 9.4492,9.44922 h 273.2773 z"
   sodipodi:nodetypes="ccccc" /></svg>
