<?xml version="1.0" encoding="UTF-8" standalone="no"?>
<!-- Generator: Adobe Illustrator 16.0.0, SVG Export Plug-In . SVG Version: 6.00 Build 0)  -->

<svg
   version="1.1"
   id="Capa_1"
   x="0px"
   y="0px"
   width="304.45099"
   height="408.483"
   viewBox="0 0 304.45099 408.483"
   xml:space="preserve"
   sodipodi:docname="trash - Copie.svg"
   inkscape:version="1.1 (c68e22c387, 2021-05-23)"
   xmlns:inkscape="http://www.inkscape.org/namespaces/inkscape"
   xmlns:sodipodi="http://sodipodi.sourceforge.net/DTD/sodipodi-0.dtd"
   xmlns="http://www.w3.org/2000/svg"
   xmlns:svg="http://www.w3.org/2000/svg"><defs
   id="defs43" /><sodipodi:namedview
   id="namedview41"
   pagecolor="#505050"
   bordercolor="#eeeeee"
   borderopacity="1"
   inkscape:pageshadow="0"
   inkscape:pageopacity="0"
   inkscape:pagecheckerboard="0"
   showgrid="false"
   inkscape:zoom="0.4969607"
   inkscape:cx="-169.02745"
   inkscape:cy="276.68184"
   inkscape:window-width="1920"
   inkscape:window-height="1001"
   inkscape:window-x="-9"
   inkscape:window-y="-9"
   inkscape:window-maximized="1"
   inkscape:current-layer="Capa_1" />
<g
   id="g8"
   transform="translate(-52.016)"
   style="fill:#f16060;fill-opacity:1;stroke:none;stroke-opacity:1">
	<g
   id="g6"
   style="fill:#f16060;fill-opacity:1;stroke:none;stroke-opacity:1">
		<path
   d="m 87.748,388.784 c 0.461,11.01 9.521,19.699 20.539,19.699 h 191.911 c 11.018,0 20.078,-8.689 20.539,-19.699 L 334.442,99.468 H 74.043 Z M 247.655,171.329 c 0,-4.61 3.738,-8.349 8.35,-8.349 h 13.355 c 4.609,0 8.35,3.738 8.35,8.349 v 165.293 c 0,4.611 -3.738,8.349 -8.35,8.349 h -13.355 c -4.61,0 -8.35,-3.736 -8.35,-8.349 z m -58.439,0 c 0,-4.61 3.738,-8.349 8.349,-8.349 h 13.355 c 4.609,0 8.349,3.738 8.349,8.349 v 165.293 c 0,4.611 -3.737,8.349 -8.349,8.349 h -13.355 c -4.61,0 -8.349,-3.736 -8.349,-8.349 z m -58.441,0 c 0,-4.61 3.738,-8.349 8.349,-8.349 h 13.356 c 4.61,0 8.349,3.738 8.349,8.349 v 165.293 c 0,4.611 -3.738,8.349 -8.349,8.349 h -13.356 c -4.61,0 -8.349,-3.736 -8.349,-8.349 z"
   id="path2"
   style="fill:#f16060;fill-opacity:1;stroke:none;stroke-opacity:1" />
		<path
   d="M 343.567,21.043 H 255.032 V 4.305 C 255.032,1.928 253.105,0 250.727,0 h -92.971 c -2.377,0 -4.304,1.928 -4.304,4.305 V 21.042 H 64.916 c -7.125,0 -12.9,5.776 -12.9,12.901 V 74.47 H 356.467 V 33.944 c 0,-7.125 -5.775,-12.901 -12.9,-12.901 z"
   id="path4"
   style="fill:#f16060;fill-opacity:1;stroke:none;stroke-opacity:1" />
	</g>
</g>
<g
   id="g10"
   transform="translate(-52.016)">
</g>
<g
   id="g12"
   transform="translate(-52.016)">
</g>
<g
   id="g14"
   transform="translate(-52.016)">
</g>
<g
   id="g16"
   transform="translate(-52.016)">
</g>
<g
   id="g18"
   transform="translate(-52.016)">
</g>
<g
   id="g20"
   transform="translate(-52.016)">
</g>
<g
   id="g22"
   transform="translate(-52.016)">
</g>
<g
   id="g24"
   transform="translate(-52.016)">
</g>
<g
   id="g26"
   transform="translate(-52.016)">
</g>
<g
   id="g28"
   transform="translate(-52.016)">
</g>
<g
   id="g30"
   transform="translate(-52.016)">
</g>
<g
   id="g32"
   transform="translate(-52.016)">
</g>
<g
   id="g34"
   transform="translate(-52.016)">
</g>
<g
   id="g36"
   transform="translate(-52.016)">
</g>
<g
   id="g38"
   transform="translate(-52.016)">
</g>
</svg>
