<?xml version="1.0" encoding="UTF-8" standalone="no"?>
<!-- Svg Vector Icons : http://www.onlinewebfonts.com/icon -->

<svg
   version="1.1"
   x="0px"
   y="0px"
   viewBox="0 0 979.97498 567.05475"
   enable-background="new 0 0 1000 1000"
   xml:space="preserve"
   id="svg8"
   sodipodi:docname="view-password.svg"
   width="979.97498"
   height="567.05475"
   inkscape:version="1.2 (dc2aedaf03, 2022-05-15)"
   xmlns:inkscape="http://www.inkscape.org/namespaces/inkscape"
   xmlns:sodipodi="http://sodipodi.sourceforge.net/DTD/sodipodi-0.dtd"
   xmlns="http://www.w3.org/2000/svg"
   xmlns:svg="http://www.w3.org/2000/svg"><defs
   id="defs12" /><sodipodi:namedview
   id="namedview10"
   pagecolor="#505050"
   bordercolor="#eeeeee"
   borderopacity="1"
   inkscape:showpageshadow="0"
   inkscape:pageopacity="0"
   inkscape:pagecheckerboard="0"
   inkscape:deskcolor="#505050"
   showgrid="false"
   inkscape:zoom="0.843"
   inkscape:cx="491.1032"
   inkscape:cy="285.29063"
   inkscape:window-width="1920"
   inkscape:window-height="1001"
   inkscape:window-x="2391"
   inkscape:window-y="-9"
   inkscape:window-maximized="1"
   inkscape:current-layer="svg8" />
<metadata
   id="metadata2"> Svg Vector Icons : http://www.onlinewebfonts.com/icon </metadata>
<g
   id="g6"
   transform="translate(-10.025,-216.47263)"><path
     d="m 990,502.6 v 0 0 c 0,2.6 0,2.6 0,2.6 v 0 0 c 0,7.7 -5.2,15.5 -10.3,20.6 -10.3,12.9 -20.6,23.2 -33.5,36.1 -61.9,61.9 -131.6,116.1 -209,157.4 -49,25.8 -100.6,46.5 -154.8,56.8 C 523,786.4 463.7,786.4 404.3,773.5 301,750.3 208.1,696.1 125.5,629 86.8,598 50.7,564.5 19.7,525.8 6.8,510.3 6.8,489.7 19.7,474.2 30,461.3 40.3,448.4 53.2,438.1 112.6,376.2 184.8,319.4 259.7,280.7 c 49,-25.8 100.6,-46.5 154.8,-56.8 59.4,-10.3 118.7,-10.3 178.1,2.6 103.2,23.2 196.1,77.4 278.7,144.5 38.7,31 74.8,64.5 105.8,103.2 5.2,5.2 10.3,12.9 10.3,20.6 v 0 0 0 0 0 c 2.6,2.6 2.6,5.2 2.6,7.8 0,-2.6 0,-2.6 0,0 z M 499.7,309 c -100.6,0 -183.2,82.6 -183.2,183.2 0,100.6 82.6,183.2 183.2,183.2 100.6,0 183.2,-82.6 183.2,-183.2 C 682.9,391.6 600.3,309 499.7,309 Z m 0,273.6 c -51.6,0 -92.9,-41.3 -92.9,-92.9 0,-51.6 41.3,-90.3 92.9,-90.3 51.6,0 92.9,41.3 92.9,92.9 0,51.6 -41.3,90.3 -92.9,90.3 z"
     id="path4" /></g>
</svg>
