<?xml version="1.0" encoding="UTF-8" standalone="no"?>
<!-- Created with Inkscape (http://www.inkscape.org/) -->

<svg
   id="Layer_3"
   xml:space="preserve"
   height="532.96802"
   width="607.83887"
   version="1.0"
   viewBox="0 0 607.83788 532.96801"
   sodipodi:docname="warning-sign.svg"
   inkscape:version="1.1 (c68e22c387, 2021-05-23)"
   xmlns:inkscape="http://www.inkscape.org/namespaces/inkscape"
   xmlns:sodipodi="http://sodipodi.sourceforge.net/DTD/sodipodi-0.dtd"
   xmlns="http://www.w3.org/2000/svg"
   xmlns:svg="http://www.w3.org/2000/svg"><defs
   id="defs9" /><sodipodi:namedview
   id="namedview7"
   pagecolor="#ffffff"
   bordercolor="#999999"
   borderopacity="1"
   inkscape:pageshadow="0"
   inkscape:pageopacity="0"
   inkscape:pagecheckerboard="0"
   showgrid="false"
   inkscape:zoom="0.52154664"
   inkscape:cx="164.89417"
   inkscape:cy="298.15167"
   inkscape:window-width="1920"
   inkscape:window-height="1001"
   inkscape:window-x="-9"
   inkscape:window-y="-9"
   inkscape:window-maximized="1"
   inkscape:current-layer="Layer_3" />
<path
   id="path2231"
   fill="#ea0000"
   d="m 604.55037,496.202 -279.4,-483.94 C 320.77037,4.674 312.68037,0 303.92037,0 c -8.76,0 -16.85,4.674 -21.23,12.258 L 3.2803723,496.198 c -4.375,7.58 -4.375,16.93 0.003,24.52 4.379,7.58 12.4719997,12.25 21.2299997,12.25 H 583.32337 c 8.76,0 16.86,-4.67 21.23,-12.25 4.38,-7.59 4.38,-16.94 0,-24.52 z"
   style="fill:#000000" />
<polygon
   id="polygon2233"
   points="313.94,101.89 93.977,482.88 533.9,482.88 "
   fill="#fff"
   style="fill:#000000"
   transform="translate(-10.019628,-8.738)" />
<path
   id="path2235"
   d="m 281.85037,334.622 c 1.21,11.49 3.21,20.04 6.02,25.66 2.81,5.63 7.82,8.43 15.04,8.43 h 2.01 c 7.22,0 12.24,-2.8 15.04,-8.43 2.81,-5.62 4.82,-14.17 6.02,-25.66 l 6.42,-88.75 c 1.21,-17.3 1.81,-29.71 1.81,-37.25 0,-10.25 -2.91,-18.25 -8.73,-23.99 -5.53,-5.46 -13.38,-8.59 -21.56,-8.59 -8.18,0 -16.04,3.13 -21.57,8.59 -5.81,5.74 -8.72,13.74 -8.72,23.99 0,7.54 0.6,19.95 1.8,37.25 z"
   style="fill:#ffffff" />
<circle
   id="circle2237"
   cy="422.052"
   cx="303.92038"
   r="30.747"
   style="fill:#ffffff" />
</svg>
